<?xml version="1.0" encoding="UTF-8"?>
<svg id="_レイヤー_2" data-name="レイヤー 2" xmlns="http://www.w3.org/2000/svg" viewBox="0 0 54.61 36.69">
  <defs>
    <style>
      .cls-1 {
        fill: #595757;
      }

      .cls-1, .cls-2, .cls-3 {
        stroke-width: 0px;
      }

      .cls-2 {
        fill: #8c6d54;
      }

      .cls-3 {
        fill: #fff;
      }
    </style>
  </defs>
  <g id="_レイヤー_1-2" data-name="レイヤー 1">
    <g>
      <g>
        <path class="cls-2" d="m1.75,27.39c.59,1.42,2.48,1.61,3.41.39,4.65-6.11,13.27-10.21,23.13-10.21s18.66,4.2,23.28,10.42c.31.42.89.32,1.1-.17.93-2.09,1.43-4.33,1.43-6.66,0-3.72-1.28-7.2-3.51-10.21-.42-.57-.5-1.37-.26-2.07.69-1.98.59-3.94-.42-5.04-1.36-1.47-3.88-.91-5.91,1.18C39.42,2.19,33.62.5,27.3.5c-6.73,0-12.88,1.92-17.59,5.08-2.07-2.29-4.76-2.89-6.1-1.33-1.05,1.23-.96,3.44.08,5.51.27.54.26,1.23-.08,1.72C1.63,14.37.5,17.65.5,21.15c0,2.18.44,4.27,1.25,6.24Z"/>
        <path class="cls-2" d="m3.56,29.09c-.11,0-.22,0-.33-.02-.87-.11-1.6-.67-1.93-1.49-.86-2.07-1.29-4.24-1.29-6.43,0-3.46,1.11-6.9,3.2-9.95.22-.33.24-.81.04-1.22-1.16-2.33-1.16-4.71,0-6.06.57-.67,1.37-1.03,2.3-1.05,1.38-.02,2.94.74,4.25,2.05C14.69,1.75,20.89,0,27.3,0s11.82,1.51,16.62,4.37c1.29-1.21,2.74-1.92,4.08-1.88.91.01,1.7.35,2.28.99,1.12,1.22,1.32,3.29.53,5.55-.2.57-.13,1.18.19,1.61,2.36,3.19,3.61,6.82,3.61,10.51,0,2.35-.5,4.65-1.48,6.86-.18.41-.54.68-.95.73-.39.05-.77-.13-1.01-.46-4.68-6.3-13.44-10.22-22.88-10.22s-18.02,3.84-22.73,10.02c-.49.64-1.22,1.01-2,1.01ZM5.6,3.88s-.03,0-.04,0c-.65,0-1.17.24-1.56.7-.88,1.03-.82,3.03.14,4.97.36.73.32,1.6-.11,2.23-1.98,2.87-3.03,6.12-3.03,9.38,0,2.06.41,4.1,1.21,6.05h0c.2.49.62.81,1.14.88.54.07,1.07-.15,1.41-.6,4.89-6.42,13.9-10.41,23.52-10.41s18.82,4.07,23.68,10.62c.05.06.08.06.1.06.04,0,.1-.04.15-.14.92-2.08,1.39-4.25,1.39-6.46,0-3.47-1.18-6.9-3.41-9.91-.51-.69-.63-1.66-.33-2.53.66-1.88.53-3.61-.32-4.54-.4-.43-.92-.66-1.56-.66-1.12-.05-2.49.68-3.63,1.85l-.28.29-.34-.21c-4.71-2.9-10.4-4.43-16.44-4.43-6.37,0-12.52,1.77-17.31,4.99l-.36.24-.29-.32c-1.16-1.28-2.55-2.04-3.75-2.04Z"/>
      </g>
      <g>
        <g>
          <ellipse class="cls-3" cx="27.37" cy="29.01" rx="9.32" ry="7.18"/>
          <path class="cls-2" d="m27.37,36.69c-5.42,0-9.82-3.45-9.82-7.68s4.41-7.68,9.82-7.68,9.82,3.45,9.82,7.68-4.41,7.68-9.82,7.68Zm0-14.36c-4.87,0-8.82,3-8.82,6.68s3.96,6.68,8.82,6.68,8.82-3,8.82-6.68-3.96-6.68-8.82-6.68Z"/>
        </g>
        <ellipse class="cls-2" cx="27.36" cy="25.94" rx="2.61" ry="3.07"/>
        <g>
          <path class="cls-2" d="m22.81,31.78c-1.65,0-2.67-.55-2.74-.59l.49-.87-.24.44.24-.44c.11.06,2.79,1.47,6.59-.9l.53.85c-1.9,1.19-3.58,1.52-4.87,1.52Z"/>
          <path class="cls-2" d="m31.95,31.85c-3.11,0-4.81-1.65-4.9-1.73l.71-.71-.35.35.35-.36c.1.09,2.38,2.27,6.58,1.11l.27.96c-.97.27-1.86.38-2.65.38Z"/>
        </g>
      </g>
      <circle class="cls-1" cx="20.7" cy="18.38" r="2.59"/>
      <ellipse class="cls-1" cx="35.16" cy="17.69" rx="2.59" ry="2.48"/>
    </g>
  </g>
</svg>